<?xml version="1.0" encoding="UTF-8" standalone="no"?>
<svg
   xmlns:dc="http://purl.org/dc/elements/1.1/"
   xmlns:cc="http://creativecommons.org/ns#"
   xmlns:rdf="http://www.w3.org/1999/02/22-rdf-syntax-ns#"
   xmlns:svg="http://www.w3.org/2000/svg"
   xmlns="http://www.w3.org/2000/svg"
   viewBox="0 0 170.08 204.48"
   height="204.48"
   width="170.08"
   xml:space="preserve"
   id="svg2"
   version="1.1"><metadata
     id="metadata8"><rdf:RDF><cc:Work
         rdf:about=""><dc:format>image/svg+xml</dc:format><dc:type
           rdf:resource="http://purl.org/dc/dcmitype/StillImage" /></cc:Work></rdf:RDF></metadata><defs
     id="defs6" /><g
     transform="matrix(1.3333333,0,0,-1.3333333,0,204.48)"
     id="g10"><g
       transform="scale(0.1)"
       id="g12"><path
         id="path14"
         style="fill:#b31c18;fill-opacity:1;fill-rule:nonzero;stroke:none"
         d="m 1275.59,350.082 v 47.957 c 0,22.609 -3.87,41.832 -11.62,57.66 -14.85,31.012 -35.84,54.09 -62.99,69.301 12.92,8.059 24.22,17.918 33.93,29.547 22.59,27.433 33.91,60.098 33.91,97.851 v 25.684 c 0,39.074 -11.62,71.711 -34.89,97.883 -25.85,29.066 -60.25,43.586 -103.19,43.586 -45.22,0 -80.26,-15.508 -105.13,-46.496 -21.97,-27.141 -32.95,-62.356 -32.95,-105.637 v -14.031 h 89.63 v 15.867 c 0,18.008 3.39,32.609 10.18,43.828 9.04,14.797 23.24,22.18 42.63,22.18 34.89,0 52.33,-19.844 52.33,-59.532 v -14.035 c 0,-31.941 -7.76,-56.804 -23.27,-74.539 -16.79,-19.699 -42.78,-29.504 -77.98,-29.504 v -78.414 c 65.22,0 97.87,-31.129 97.87,-93.386 v -35.801 c 0,-39.071 -21.03,-58.59 -62.99,-58.59 -15.19,0 -27.54,4.871 -37.07,14.551 -9.54,9.668 -14.93,22.109 -16.23,37.297 l -1.94,21.32 -87.203,-6.809 v -15.011 c 0,-39.739 14.043,-73.778 42.143,-102.219 28.09,-28.442 62.33,-42.621 102.7,-42.621 41.35,0 76.73,13.871 106.12,41.66 30.67,28.75 46.01,65.551 46.01,110.453 M 2.57813,898.34 H 1273.03 v 3.742 h -0.1 C 1270.92,1251.18 987.379,1533.58 637.797,1533.58 288.219,1533.58 4.6875,1251.18 2.66016,902.082 H 2.57813 Z M 62.7383,760.703 C 42.8828,746.637 21.9492,738.336 0,735.738 V 671.773 H 77.9883 V 204.25 H 169.57 V 811.793 H 105.621 C 96.8906,791.785 82.5977,774.754 62.7383,760.703 M 84.0078,126.66 H 55.7891 V 1.58203 h 34.9101 c 4.7227,0 9.4728,1.46875 14.2618,4.38672 4.25,2.58984 7.551,6.06255 9.867,10.37105 3,5.5196 4.492,12.2305 4.492,20.1407 0,3.1992 -0.226,6.1015 -0.703,8.6914 -0.926,5.0469 -2.355,9.1679 -4.277,12.3672 -2.93,4.7109 -6.488,7.8828 -10.684,9.4726 2.535,1.1172 4.723,2.7578 6.594,4.8867 4.449,5.0508 6.68,11.7618 6.68,20.1524 0,5.1094 -0.602,9.5312 -1.797,13.2582 -2.192,6.98 -5.856,12.14 -10.973,15.472 -5.9803,3.91 -12.6991,5.879 -20.1522,5.879 M 76.1367,57.5391 h 7.8711 c 4.6641,0 8.1797,-1.4688 10.582,-4.3985 2.6602,-3.1797 3.9883,-8.2812 3.9883,-15.2422 0,-2.9375 -0.4375,-5.539 -1.2968,-7.789 -2.461,-6.5899 -6.879,-9.8789 -13.2735,-9.8789 h -7.8711 z m 0,49.9729 h 7.8711 c 3.7305,0 6.7539,-1.231 9.082,-3.703 2.5313,-2.661 3.7891,-6.5785 3.7891,-11.7582 0,-3.1406 -0.3711,-5.7617 -1.0898,-7.8789 -2,-5.7305 -5.9297,-8.5899 -11.7813,-8.5899 h -7.8711 z m 76.4413,11.91 c -5.848,-5.82 -8.777,-12.891 -8.777,-21.1915 V 30.0117 c 0,-8.25 2.898,-15.3008 8.679,-21.15232 5.793,-5.84766 12.829,-8.7695362 21.149,-8.7695362 8.242,0 15.293,2.9101562 21.141,8.7187462 5.851,5.82031 8.781,12.89061 8.781,21.20311 v 68.2188 c 0,8.2385 -2.922,15.2895 -8.731,21.1405 -5.82,5.848 -12.882,8.77 -21.191,8.77 -8.188,0 -15.199,-2.911 -21.051,-8.719 m 9.672,-20.8009 c 0,3.0079 1.07,5.5509 3.191,7.6409 2.129,2.09 4.692,3.129 7.68,3.129 2.996,0 5.535,-1.039 7.641,-3.129 2.09,-2.09 3.14,-4.633 3.14,-7.6409 V 30.2109 c 0,-3 -1.05,-5.539 -3.14,-7.6289 -2.106,-2.0937 -4.645,-3.1523 -7.641,-3.1523 -2.988,0 -5.551,1.0586 -7.68,3.1523 -2.121,2.0899 -3.191,4.6289 -3.191,7.6289 z m 96.102,27.9299 H 228.617 V 1.58203 H 247.48 V 48.6484 h 12.559 l 11.43,-47.06637 h 20.39 L 277.902,56.1406 c 6.707,6.1094 10.067,13.5899 10.067,22.4414 v 18.1563 c 0,9.0427 -2.156,16.0817 -6.481,21.1407 -4.929,5.769 -12.64,8.672 -23.136,8.672 m -10.872,-19.25 h 11.36 c 7.191,0 10.781,-3.629 10.781,-10.8713 V 78.1719 c 0,-2.9805 -1.051,-5.5508 -3.152,-7.6836 -2.09,-2.1094 -4.629,-3.1797 -7.629,-3.1797 h -11.36 z m 2.5,235.508 c 0,-40.039 14.114,-74.18 42.387,-102.469 28.254,-28.231 62.567,-42.371 102.949,-42.371 39.723,0 73.805,14.043 102.223,42.133 28.434,28.117 42.621,62.347 42.621,102.707 v 331.406 c 0,40.051 -14.043,74.297 -42.133,102.711 -28.105,28.406 -62.347,42.625 -102.711,42.625 -40.046,0 -74.296,-14.129 -102.695,-42.406 -28.43,-28.231 -42.641,-62.579 -42.641,-102.93 z m 90.098,333.332 c 0,14.55 5.102,26.972 15.274,37.324 10.175,10.32 22.539,15.496 37.046,15.496 14.54,0 26.993,-5.176 37.313,-15.496 10.34,-10.352 15.5,-22.774 15.5,-37.324 V 344.27 c 0,-14.54 -5.16,-26.961 -15.5,-37.309 -10.32,-10.32 -22.773,-15.5 -37.313,-15.5 -14.507,0 -26.871,5.18 -37.046,15.5 -10.172,10.348 -15.274,22.769 -15.274,37.309 z M 337.598,126.66 H 316.441 V 1.58203 h 18.848 V 81.6797 L 361.223,1.58203 h 20.246 V 126.66 H 362.621 V 42.6016 Z m 122.804,0 H 406.738 V 1.58203 h 53.664 V 20.5313 h -34.8 v 34.1171 h 25.429 v 18.9414 h -25.429 v 34.1092 h 34.8 z m 117.071,-0.109 H 558.617 V 1.58203 h 18.856 z m 46.437,0.109 H 602.75 V 1.58203 h 18.852 V 81.6797 L 647.535,1.58203 h 20.242 V 126.66 H 648.93 V 42.6016 Z m 36.399,113.93 c 28.113,-28.442 62.332,-42.621 102.722,-42.621 h 7.258 c 40.047,0 74.285,14.043 102.703,42.133 28.43,28.117 42.637,62.347 42.637,102.707 v 55.23 c 0,22.609 -3.867,41.832 -11.621,57.66 -14.852,31.012 -35.848,54.09 -62.988,69.301 12.265,6.449 23.429,15.191 33.437,26.148 22.598,24.875 33.918,56.184 33.918,94.016 v 32.918 c 0,39.074 -11.621,71.711 -34.895,97.883 -25.847,29.066 -60.253,43.586 -103.191,43.586 h -7.258 c -42.636,0 -76.883,-14.52 -102.722,-43.586 -23.246,-25.871 -34.868,-58.488 -34.868,-97.883 v -32.918 c 0,-22.961 3.387,-42.031 10.168,-57.18 C 649.176,558.563 668.227,537.586 692.77,525 678.559,517.23 666.137,507.379 655.473,495.43 630.609,467.66 618.16,435.199 618.16,398.039 v -55.23 c 0,-39.739 14.051,-73.778 42.149,-102.219 m 49.421,145.34 c 0,20.98 2.59,37.82 7.747,50.422 8.73,20.648 25.203,30.98 49.421,30.98 13.868,0 24.719,-2.891 32.473,-8.723 16.465,-12.277 24.715,-36.488 24.715,-72.679 v -29.071 c 0,-10.968 -1.785,-20.328 -5.359,-28.078 -9.688,-23.281 -26.954,-35.543 -51.829,-36.84 -15.488,0.649 -28.425,6.129 -38.75,16.481 -12.304,12.258 -18.418,28.418 -18.418,48.437 z m 1.204,308.98 c 3.406,11.102 9.129,20.223 17.214,27.305 9.993,8.699 22.922,13.047 38.75,13.047 8.067,0 15.012,-1.309 20.84,-3.867 25.489,-10.637 38.586,-36.7 39.231,-78.254 0.32,-23.192 -3.711,-41.719 -12.11,-55.547 -10.019,-16.434 -25.996,-24.656 -47.961,-24.656 -21.972,0 -37.781,7.734 -47.488,23.21 -7.433,11.575 -11.621,30.579 -12.59,56.993 -0.664,16.738 0.723,30.664 4.114,41.769 M 819.652,126.66 h -53.66 V 1.58203 H 784.84 V 54.6484 h 25.43 v 18.9414 h -25.43 v 34.1092 h 34.812 z m 51.106,-0.109 H 841.039 V 1.58203 h 18.848 V 48.6484 h 12.57 L 883.883,1.58203 h 20.39 L 890.309,56.1406 c 6.718,6.1094 10.066,13.5899 10.066,22.4414 v 18.1563 c 0,9.0427 -2.148,16.0817 -6.473,21.1407 -4.922,5.769 -12.629,8.672 -23.144,8.672 m -10.871,-19.25 h 11.367 c 7.187,0 10.773,-3.629 10.773,-10.8713 V 78.1719 c 0,-2.9805 -1.047,-5.5508 -3.136,-7.6836 -2.09,-2.1094 -4.629,-3.1797 -7.637,-3.1797 h -11.367 z m 89.211,19.25 L 927.855,1.58203 h 19.629 l 4.571,28.72657 h 19.699 L 976.156,1.58203 H 995.98 L 975.035,126.551 Z m 5.886,-77.9026 6.985,49.2813 6.98,-49.2813 z m 86.446,78.0116 h -21.17 V 1.58203 h 18.86 V 81.6797 l 25.93,-80.09767 h 20.24 V 126.66 h -18.85 V 42.6016 Z m 77.61,-7.441 c -5.85,-5.821 -8.77,-12.879 -8.77,-21.1995 V 29.8086 c 0,-8.25 2.91,-15.2695 8.72,-21.08985 C 1124.81,2.89844 1131.88,0 1140.19,0 c 8.18,0 15.2,2.89063 21.04,8.66016 5.85,5.78904 8.77,12.82814 8.77,21.14844 v 17.4531 h -19.54 v -17.25 c 0,-2.9804 -1.06,-5.5429 -3.19,-7.6406 -2.13,-2.0898 -4.69,-3.1328 -7.69,-3.1328 -2.98,0 -5.52,1.043 -7.61,3.1328 -2.11,2.0977 -3.15,4.6602 -3.15,7.6406 v 68.4102 c 0,3.0001 1.04,5.5581 3.15,7.6801 2.09,2.128 4.63,3.199 7.61,3.199 3,0 5.56,-1.071 7.69,-3.199 2.13,-2.122 3.19,-4.68 3.19,-7.6801 V 83.7695 H 1170 v 14.25 c 0,8.2615 -2.88,15.3125 -8.67,21.1605 -5.78,5.851 -12.83,8.769 -21.14,8.769 -8.25,0 -15.29,-2.91 -21.15,-8.73 m 128.5,7.441 h -53.65 V 1.58203 h 53.65 V 20.5313 h -34.8 v 34.1171 h 25.43 v 18.9414 h -25.43 v 34.1092 h 34.8 v 18.961" /></g></g></svg>